<svg width="71" height="71" viewBox="0 0 71 71" fill="none" xmlns="http://www.w3.org/2000/svg">
<path d="M19.6022 41.0565C22.0718 33.5243 27.0109 31.0239 29.1718 30.7152C30.5075 31.8454 34.1926 33.6733 38.2603 31.9576C32.7274 34.3025 35.3478 37.2505 37.3522 38.4326C35.2531 40.6552 36.066 42.7543 36.7348 43.5261C36.2409 47.3539 39.1015 47.3848 40.5935 46.9217C41.5813 47.2922 42.7029 47.0761 43.2174 46.9217L45.687 54.3304H47.2304L44.4522 45.9956C46.4278 46.9835 48.4652 43.5261 49.3913 41.6739L52.9413 52.6326C53.4352 55.1022 51.5007 55.7196 50.4718 55.7196H18.9848C16.2683 55.5961 16.2065 53.4043 16.5152 52.3239L19.6022 41.0565Z" fill="black" stroke="black"/>
<path d="M45.687 29.6348C44.7609 29.4804 42.3531 29.9126 40.1305 32.8761L37.5065 34.2652C37.0435 34.8312 36.5187 36.0865 38.1239 36.5804L41.2109 35.3456L38.1239 40.5935C37.8152 41.3652 37.63 42.8161 39.3587 42.4456M39.3587 42.4456L43.0631 37.0435M39.3587 42.4456C38.8957 43.1659 38.1548 44.6991 38.8957 45.0696C39.05 45.2754 39.6057 45.5017 40.5935 44.7609M40.5935 44.7609L44.7609 37.9696M40.5935 44.7609C40.7993 45.2754 41.4887 46.0574 42.6 45.0696L43.7698 43.2174M46.3044 39.2043L43.7698 43.2174M43.7698 43.2174C43.74 43.7319 44.02 44.6374 45.3783 44.1435L49.7 37.5065C50.0087 36.9406 50.5644 35.1913 50.3174 32.7217L54.0218 27.937" stroke="black" stroke-width="1.5" stroke-linecap="round" stroke-linejoin="round"/>
<circle cx="35.5" cy="35.5" r="34.5" stroke="black" stroke-width="2"/>
<circle cx="34.5739" cy="23.4609" r="8.02609" fill="black"/>
<path d="M48.8102 25.372C49.0133 25.011 48.8852 24.5537 48.5242 24.3507C48.1632 24.1476 47.7059 24.2756 47.5028 24.6366L48.8102 25.372ZM47.5028 24.6366L44.7246 29.5758L46.032 30.3112L48.8102 25.372L47.5028 24.6366Z" fill="black"/>
<path d="M23.3065 54.1761H21.9174L24.5413 46.6131C25.2822 45.9957 25.5703 46.6645 25.6217 47.0761L23.3065 54.1761Z" fill="white"/>
</svg>
